<?xml version="1.0" encoding="UTF-8" standalone="no"?>
<svg
   xmlns:dc="http://purl.org/dc/elements/1.1/"
   xmlns:cc="http://creativecommons.org/ns#"
   xmlns:rdf="http://www.w3.org/1999/02/22-rdf-syntax-ns#"
   xmlns:svg="http://www.w3.org/2000/svg"
   xmlns="http://www.w3.org/2000/svg"
   xmlns:sodipodi="http://sodipodi.sourceforge.net/DTD/sodipodi-0.dtd"
   xmlns:inkscape="http://www.inkscape.org/namespaces/inkscape"
   width="281.8143"
   height="65"
   viewBox="0 0 281.8143 65"
   version="1.1"
   id="svg1136"
   sodipodi:docname="logo-est.svg"
   style="fill:none"
   inkscape:version="0.92.4 (5da689c313, 2019-01-14)">
  <metadata
     id="metadata1142">
    <rdf:RDF>
      <cc:Work
         rdf:about="">
        <dc:format>image/svg+xml</dc:format>
        <dc:type
           rdf:resource="http://purl.org/dc/dcmitype/StillImage" />
        <dc:title></dc:title>
      </cc:Work>
    </rdf:RDF>
  </metadata>
  <defs
     id="defs1140" />
  <sodipodi:namedview
     pagecolor="#ffffff"
     bordercolor="#666666"
     borderopacity="1"
     objecttolerance="10"
     gridtolerance="10"
     guidetolerance="10"
     inkscape:pageopacity="0"
     inkscape:pageshadow="2"
     inkscape:window-width="1920"
     inkscape:window-height="1123"
     id="namedview1138"
     showgrid="false"
     inkscape:zoom="4.0250961"
     inkscape:cx="143.9528"
     inkscape:cy="12.924416"
     inkscape:window-x="1911"
     inkscape:window-y="-9"
     inkscape:window-maximized="1"
     inkscape:current-layer="svg1136"
     fit-margin-top="0"
     fit-margin-left="0"
     fit-margin-right="0"
     fit-margin-bottom="0" />
  <path
     d="M 61.005282,0 H 33.926503 v 17.017391 h 10.071095 v 10.077103 h 17.007684 z"
     id="path1026"
     inkscape:connector-curvature="0"
     style="fill:#008fd7;stroke-width:1.15557814" />
  <path
     d="M 33.925926,17.017391 H 16.918358 V 44.111885 H 43.997136 V 27.094379 h -10.07121 z"
     id="path1028"
     inkscape:connector-curvature="0"
     style="fill:#008fd7;stroke-width:1.15557814" />
  <path
     d="M 33.914832,27.105588 H 16.918358 v 17.006297 h 16.996474 z"
     id="path1030"
     inkscape:connector-curvature="0"
     style="fill:#00a6eb;stroke-width:1.15557814" />
  <path
     d="M 61.004935,0 H 44.008461 v 17.006297 h 16.996474 z"
     id="path1032"
     inkscape:connector-curvature="0"
     style="fill:#00a6eb;stroke-width:1.15557814" />
  <path
     d="M 9.0262441,0.0778661 H 0 v 9.0314871 h 9.0262441 z"
     id="path1034"
     inkscape:connector-curvature="0"
     style="fill:#008fd7;stroke-width:1.15557814" />
  <path
     d="M 9.0262441,27.072192 H 0 v 9.031421 h 9.0262441 z"
     id="path1036"
     inkscape:connector-curvature="0"
     style="fill:#008fd7;stroke-width:1.15557814" />
  <path
     d="M 6.7695502,53.521527 H 2.2564281 v 4.515768 h 4.5131221 z"
     id="path1038"
     inkscape:connector-curvature="0"
     style="fill:#008fd7;stroke-width:1.15557814" />
  <path
     d="m 28.068184,6.0951432 h -4.51311 v 4.5157338 h 4.51311 z"
     id="path1040"
     inkscape:connector-curvature="0"
     style="fill:#008fd7;stroke-width:1.15557814" />
  <path
     d="m 35.593772,51.263642 h -9.026221 v 9.031537 h 9.026221 z"
     id="path1042"
     inkscape:connector-curvature="0"
     style="fill:#008fd7;stroke-width:1.15557814" />
  <path
     d="m 55.524952,33.100612 h -4.51311 v 4.515652 h 4.51311 z"
     id="path1044"
     inkscape:connector-curvature="0"
     style="fill:#00a6eb;stroke-width:1.15557814" />
  <path
     d="m 89.617513,33.556603 c 0,0.355918 0,0.700742 0,1.023264 0,0.322522 0,0.589461 -0.07777,0.789722 H 76.089275 c 0.07419,0.864257 0.280458,1.711989 0.611416,2.51373 0.262085,0.637763 0.638804,1.222139 1.111551,1.723891 0.444666,0.431609 0.969645,0.771695 1.545239,1.001077 0.567389,0.218174 1.170716,0.327607 1.77855,0.322522 0.798273,0.01444 1.591693,-0.129193 2.334384,-0.422595 0.761179,-0.292592 1.476251,-0.693347 2.123143,-1.19013 l 2.356571,2.54701 c -0.877893,0.831901 -1.898268,1.498785 -3.012477,1.968759 -1.266745,0.495743 -2.619696,0.733907 -3.979464,0.700627 -1.147952,-0.0023 -2.283076,-0.240823 -3.334883,-0.700627 -1.072146,-0.468818 -2.028502,-1.167481 -2.801237,-2.046645 -0.83895,-0.97993 -1.480643,-2.112974 -1.889717,-3.336732 -0.48361,-1.43257 -0.720503,-2.937017 -0.700281,-4.448976 -0.02716,-1.546279 0.198182,-3.086549 0.666884,-4.560258 0.371981,-1.223526 0.988366,-2.358766 1.811947,-3.336732 0.763028,-0.887021 1.722158,-1.58395 2.801237,-2.035435 1.13108,-0.469858 2.343628,-0.711836 3.56831,-0.711836 1.299101,-0.03213 2.587108,0.246138 3.757247,0.811909 1.047069,0.528331 1.959629,1.289279 2.667767,2.224604 0.730326,0.972303 1.26975,2.074378 1.589614,3.247752 0.352335,1.274949 0.528099,2.592309 0.522437,3.915099 z m -4.446434,-3.436805 c -0.172643,-0.595932 -0.468009,-1.149107 -0.86703,-1.623934 -0.391395,-0.475405 -0.88552,-0.855706 -1.445051,-1.112244 -0.664573,-0.293055 -1.386231,-0.433689 -2.11205,-0.411501 -0.595701,-0.02796 -1.190246,0.07742 -1.740185,0.308308 -0.54994,0.230884 -1.041523,0.581487 -1.439042,1.026384 -0.863332,1.075959 -1.372018,2.393203 -1.456144,3.770536 h 9.481981 c -0.03952,-0.665382 -0.162705,-1.323137 -0.366896,-1.957549 z"
     id="path1046"
     inkscape:connector-curvature="0"
     style="fill:#1b1c20;stroke-width:1.15557814" />
  <path
     d="m 93.219219,35.469663 v -3.548088 h 8.614951 v 3.548088 z"
     id="path1048"
     inkscape:connector-curvature="0"
     style="fill:#1b1c20;stroke-width:1.15557814" />
  <path
     d="m 116.97455,44.100791 v -2.002039 c -0.72685,0.709294 -1.56407,1.295403 -2.47917,1.735101 -0.96179,0.470551 -2.01984,0.710449 -3.09025,0.700627 -0.83583,-0.0047 -1.66669,-0.128385 -2.46785,-0.367012 -0.81018,-0.245445 -1.56523,-0.645852 -2.2231,-1.178921 -0.69647,-0.579984 -1.25785,-1.304994 -1.6452,-2.124415 -0.44652,-0.995646 -0.66307,-2.079116 -0.6336,-3.169982 -0.03,-1.014482 0.18339,-2.021337 0.62251,-2.936324 0.38527,-0.804975 0.95231,-1.509416 1.65629,-2.057622 0.76834,-0.556527 1.63629,-0.960517 2.5566,-1.19013 1.04614,-0.26613 2.1221,-0.396941 3.20141,-0.389314 1.54466,-0.05501 3.08412,0.206155 4.52432,0.767419 v -1.501443 c 0.0301,-0.471013 -0.0428,-0.942836 -0.21378,-1.382764 -0.17103,-0.439813 -0.43565,-0.837217 -0.77539,-1.164361 -0.79862,-0.644466 -1.81149,-0.962365 -2.83475,-0.889795 -0.95705,-0.01052 -1.91202,0.09025 -2.84573,0.300335 -0.85293,0.217364 -1.67466,0.542544 -2.44555,0.967681 l -1.54512,-3.01421 c 0.97415,-0.590732 2.02526,-1.043603 3.12364,-1.345787 1.24745,-0.328993 2.53395,-0.486151 3.82392,-0.4672 1.99199,-0.108046 3.9589,0.486267 5.55822,1.679517 0.72801,0.627248 1.29887,1.417202 1.66634,2.305957 0.36632,0.88887 0.51886,1.851583 0.44606,2.810366 v 13.914316 z m -4.9914,-25.42607 c -0.0113,0.681791 -0.28635,1.332728 -0.7673,1.815991 -0.48084,0.483263 -1.13027,0.761179 -1.8116,0.775508 -0.34645,0.006 -0.69035,-0.06009 -1.00998,-0.194137 -0.31952,-0.134047 -0.60783,-0.333037 -0.84646,-0.584376 -0.24833,-0.231693 -0.44582,-0.512499 -0.57975,-0.82462 -0.13394,-0.312122 -0.20154,-0.648742 -0.1983,-0.988366 0.003,-0.697276 0.28173,-1.364854 0.77551,-1.856783 0.49378,-0.49193 1.16216,-0.768113 1.85898,-0.768113 0.33823,-0.002 0.67335,0.06506 0.9849,0.197026 0.31154,0.131967 0.59292,0.325989 0.82693,0.570393 0.2466,0.241747 0.44166,0.530989 0.57351,0.850159 0.13185,0.319286 0.1976,0.661915 0.19356,1.007318 z m 4.9914,16.772754 c -0.60552,-0.301837 -1.24918,-0.522552 -1.91225,-0.656252 -0.89753,-0.170333 -1.81009,-0.248565 -2.72346,-0.233543 -1.07931,-0.06101 -2.14996,0.223373 -3.05685,0.811909 -0.35685,0.247756 -0.64574,0.581372 -0.83999,0.970108 -0.19426,0.388737 -0.28763,0.820114 -0.27168,1.25438 -0.0225,0.452294 0.051,0.90424 0.21575,1.326026 0.16478,0.421786 0.41704,0.80382 0.74026,1.120911 0.82034,0.679133 1.87354,1.010438 2.93459,0.923192 1.03066,0.01525 2.04445,-0.262432 2.9235,-0.800816 0.76869,-0.462925 1.44355,-1.066714 1.99013,-1.77959 z m 2.54574,-16.772754 c -0.0115,0.683755 -0.28889,1.33631 -0.77192,1.819804 -0.48304,0.48361 -1.13478,0.760255 -1.81888,0.771695 -0.34552,0.0046 -0.68988,-0.06205 -1.00882,-0.195986 -0.31894,-0.134047 -0.60784,-0.332344 -0.84727,-0.582527 -0.24533,-0.233426 -0.43993,-0.51481 -0.5719,-0.8267 -0.13197,-0.311891 -0.19841,-0.647702 -0.19506,-0.986286 0,-0.696236 0.2763,-1.363814 0.76834,-1.85609 0.49228,-0.492276 1.15905,-0.768806 1.85471,-0.768806 0.33974,-0.0022 0.67717,0.06471 0.99033,0.196564 0.31316,0.131967 0.59628,0.326104 0.83317,0.570855 0.24614,0.241747 0.44143,0.530989 0.57317,0.850159 0.13173,0.319286 0.1976,0.661915 0.19413,1.007318 z"
     id="path1050"
     inkscape:connector-curvature="0"
     style="fill:#1b1c20;stroke-width:1.15557814" />
  <path
     d="m 136.96143,28.028664 c -0.43218,-0.228111 -0.88632,-0.410693 -1.35664,-0.544971 -0.55584,-0.13578 -1.12785,-0.199337 -1.70102,-0.189053 -0.55698,-0.02889 -1.11397,0.075 -1.62474,0.303109 -0.50961,0.228226 -0.95913,0.574091 -1.30927,1.009397 -0.7673,1.150609 -1.13131,2.523898 -1.03424,3.90389 V 44.100791 H 125.9118 V 23.81323 h 4.02372 v 1.935362 c 0.52232,-0.743383 1.21682,-1.349253 2.02457,-1.765723 0.8066,-0.416355 1.70332,-0.631061 2.61161,-0.62563 0.68063,-0.0171 1.36011,0.05385 2.02226,0.211355 0.50268,0.133585 0.97877,0.347714 1.41212,0.63395 z"
     id="path1052"
     inkscape:connector-curvature="0"
     style="fill:#1b1c20;stroke-width:1.15557814" />
  <path
     d="m 145.9657,18.641324 c -0.009,0.674743 -0.28196,1.319209 -0.75922,1.795307 -0.47841,0.476098 -1.12322,0.745925 -1.79808,0.751703 -0.34089,0.0058 -0.67948,-0.05836 -0.99495,-0.188359 -0.31547,-0.130118 -0.6009,-0.323331 -0.83895,-0.567967 -0.24151,-0.231346 -0.43218,-0.509494 -0.56276,-0.81734 -0.12943,-0.307962 -0.1953,-0.63915 -0.19299,-0.973344 -0.006,-0.341357 0.0578,-0.680173 0.18836,-0.995761 0.12943,-0.315704 0.32241,-0.601363 0.56739,-0.839412 0.23574,-0.246832 0.52117,-0.441431 0.83664,-0.571665 0.31663,-0.130233 0.65637,-0.193212 0.99726,-0.184661 0.33628,-0.0059 0.67024,0.05836 0.97993,0.18859 0.3097,0.130234 0.58935,0.323562 0.82047,0.567736 0.24498,0.238049 0.43796,0.523708 0.56854,0.839412 0.12942,0.315588 0.19298,0.654404 0.18836,0.995761 z m -4.5576,25.459467 V 23.81323 h 4.01217 v 20.287561 z"
     id="path1054"
     inkscape:connector-curvature="0"
     style="fill:#1b1c20;stroke-width:1.15557814" />
  <path
     d="m 161.68272,28.028779 c -0.43219,-0.228111 -0.88633,-0.410808 -1.3555,-0.54497 -0.55698,-0.135896 -1.129,-0.199453 -1.70101,-0.189169 -0.55814,-0.02877 -1.11513,0.07511 -1.62474,0.303224 -0.51077,0.228111 -0.95913,0.573976 -1.31043,1.009282 -0.77077,1.149338 -1.13824,2.522743 -1.04464,3.904005 v 11.58964 h -4.01217 V 23.813346 h 4.01217 v 1.935362 c 0.49921,-0.70028 1.15327,-1.275181 1.91248,-1.679517 0.83318,-0.459343 1.77151,-0.693232 2.72255,-0.678556 0.68525,-0.0171 1.3682,0.05397 2.03497,0.211355 0.50152,0.133585 0.97877,0.347714 1.41212,0.633951 z"
     id="path1056"
     inkscape:connector-curvature="0"
     style="fill:#1b1c20;stroke-width:1.15557814" />
  <path
     d="m 181.992,33.556603 c 0,0.355918 0,0.700742 0,1.023264 0,0.322522 -0.0555,0.589461 -0.0774,0.789722 h -13.45093 c 0.0786,0.864835 0.28774,1.712567 0.62286,2.51373 0.25769,0.639843 0.63556,1.224912 1.11166,1.723891 0.4449,0.431609 0.96953,0.771695 1.54501,1.001077 0.56739,0.219214 1.1706,0.328647 1.77844,0.322522 0.7985,0.01236 1.59123,-0.131158 2.33426,-0.422595 0.74188,-0.29733 1.4387,-0.697969 2.06849,-1.19013 l 2.35622,2.54701 c -0.87824,0.831901 -1.89861,1.498785 -3.01259,1.968759 -1.26651,0.495743 -2.6197,0.733907 -3.97981,0.700627 -1.14749,-0.0023 -2.28227,-0.240823 -3.335,-0.700627 -1.07122,-0.468818 -2.02804,-1.167481 -2.80112,-2.046645 -0.83895,-0.97993 -1.4803,-2.112974 -1.88937,-3.336732 -0.48419,-1.43257 -0.72108,-2.937017 -0.70028,-4.448976 -0.0254,-1.545239 0.19645,-3.0847 0.65521,-4.560258 0.38134,-1.222255 1.00073,-2.35657 1.8235,-3.336732 0.76268,-0.887021 1.72181,-1.58395 2.80112,-2.035435 1.13132,-0.471014 2.34352,-0.712992 3.56843,-0.711836 1.29887,-0.03213 2.58734,0.246138 3.75678,0.811909 1.04811,0.528331 1.95987,1.289279 2.66823,2.224604 0.73033,0.972303 1.26998,2.074378 1.59008,3.247752 0.36747,1.272869 0.55814,2.590229 0.56623,3.915099 z m -4.39004,-3.436805 c -0.17333,-0.595932 -0.46801,-1.149107 -0.86784,-1.623934 -0.39058,-0.475405 -0.88517,-0.855706 -1.44447,-1.112244 -0.66561,-0.292015 -1.38669,-0.432533 -2.1124,-0.411501 -0.59628,-0.02796 -1.19024,0.07742 -1.7403,0.308308 -0.55005,0.230884 -1.04117,0.581487 -1.43869,1.026384 -0.86322,1.075959 -1.37167,2.393203 -1.45603,3.770536 h 9.42605 c -0.0451,-0.664688 -0.16756,-1.32175 -0.36632,-1.957549 z"
     id="path1058"
     inkscape:connector-curvature="0"
     style="fill:#1b1c20;stroke-width:1.15557814" />
  <path
     d="m 201.86795,46.214113 c -0.27156,1.076998 -0.81122,2.067791 -1.56697,2.88074 -0.82508,0.826239 -1.84083,1.437309 -2.95712,1.779591 -1.48954,0.447555 -3.0357,0.679826 -4.59111,0.689533 l -1.35665,-3.01421 c 1.17291,-0.04472 2.33773,-0.20107 3.47944,-0.467084 0.78811,-0.183737 1.51497,-0.566812 2.1124,-1.112244 0.51308,-0.49609 0.87131,-1.129347 1.03424,-1.824081 0.20685,-0.881821 0.30392,-1.785946 0.2889,-2.691688 v -0.355918 c -0.71877,0.65972 -1.51381,1.231038 -2.36778,1.701705 -0.88171,0.469973 -1.86857,0.707329 -2.86815,0.689649 -1.04695,0.0042 -2.08466,-0.207889 -3.0461,-0.622857 -0.96953,-0.430915 -1.81772,-1.095835 -2.46716,-1.935362 -0.75575,-0.998767 -1.31851,-2.13054 -1.6571,-3.336732 -0.43912,-1.615845 -0.64481,-3.286349 -0.6113,-4.960666 -0.0266,-1.534492 0.19529,-3.063207 0.65637,-4.526862 0.36978,-1.175107 0.97068,-2.264355 1.76688,-3.203263 0.6945,-0.816069 1.56465,-1.462846 2.54574,-1.890872 0.94526,-0.419013 1.96795,-0.631293 3.00219,-0.622857 1.00535,-0.0043 1.99684,0.2362 2.8901,0.700743 0.81699,0.404799 1.54963,0.963752 2.15631,1.646121 v -1.901966 h 4.00177 v 18.352199 c 0.0231,1.355608 -0.12712,2.708559 -0.4449,4.026381 z M 198.3885,29.752786 c -0.54081,-0.702245 -1.20296,-1.301296 -1.95639,-1.768497 -0.41601,-0.259773 -0.85975,-0.472515 -1.32314,-0.63395 -0.45992,-0.163976 -0.94526,-0.246716 -1.43407,-0.244751 -0.63326,-0.03652 -1.26536,0.0906 -1.83622,0.369207 -0.5697,0.278494 -1.05966,0.699125 -1.4202,1.221331 -0.83779,1.464117 -1.22491,3.143634 -1.11167,4.827196 -0.15947,1.921496 0.22534,3.849116 1.11167,5.56122 0.36054,0.550055 0.85744,0.997611 1.44101,1.299563 0.58472,0.302068 1.23646,0.448249 1.89399,0.424444 0.92677,0.0035 1.83274,-0.271676 2.6012,-0.789722 0.74651,-0.480258 1.4075,-1.081621 1.9564,-1.77959 z"
     id="path1060"
     inkscape:connector-curvature="0"
     style="fill:#1b1c20;stroke-width:1.15557814" />
  <path
     d="m 212.13873,18.64144 c -0.008,0.672778 -0.27965,1.315626 -0.7546,1.791493 -0.47609,0.475751 -1.1186,0.74685 -1.79114,0.755517 -0.3409,0.0058 -0.67948,-0.05836 -0.99496,-0.188475 -0.31547,-0.130002 -0.6009,-0.323331 -0.83894,-0.567851 -0.24268,-0.229729 -0.43566,-0.50753 -0.56624,-0.815838 -0.12942,-0.308308 -0.19414,-0.640306 -0.18951,-0.974846 -0.001,-0.34078 0.0647,-0.67844 0.19413,-0.993566 0.12943,-0.315011 0.3201,-0.601363 0.56162,-0.842301 0.24036,-0.240938 0.52694,-0.431724 0.84126,-0.561495 0.31547,-0.129656 0.6529,-0.195755 0.99264,-0.194253 0.33512,-0.005 0.66677,0.05974 0.97531,0.189977 0.30738,0.130118 0.58472,0.3231 0.81468,0.566349 0.24498,0.238164 0.43796,0.523823 0.56739,0.839412 0.13058,0.315588 0.19413,0.654519 0.18836,0.995877 z m -4.5576,25.459351 V 23.813346 h 4.01332 v 20.287445 z"
     id="path1062"
     inkscape:connector-curvature="0"
     style="fill:#1b1c20;stroke-width:1.15557814" />
  <path
     d="m 230.83598,38.539456 c 0.0335,0.987557 -0.18374,1.967372 -0.63326,2.84746 -0.40676,0.73541 -0.98224,1.364276 -1.67905,1.835174 -0.74188,0.474827 -1.56234,0.813758 -2.42325,1.001077 -0.94179,0.207195 -1.90324,0.311659 -2.86699,0.311428 -1.41789,-0.0037 -2.82423,-0.252031 -4.15777,-0.734138 -1.28616,-0.444551 -2.50298,-1.06995 -3.61234,-1.857477 l 1.81195,-3.01421 c 0.90713,0.641808 1.90324,1.14772 2.95597,1.501558 0.95335,0.322753 1.95177,0.491699 2.95712,0.500481 2.47872,0 3.71288,-0.745116 3.71288,-2.224488 -0.009,-0.397403 -0.13174,-0.783828 -0.35245,-1.114555 -0.21956,-0.330726 -0.52926,-0.592234 -0.89211,-0.754015 -1.11976,-0.585531 -2.27418,-1.101843 -3.45749,-1.546048 -0.95104,-0.352682 -1.87666,-0.772735 -2.76761,-1.256806 -0.67948,-0.362159 -1.30118,-0.823234 -1.84546,-1.368089 -0.46339,-0.464312 -0.81699,-1.026847 -1.03424,-1.646121 -0.21147,-0.680174 -0.31201,-1.38993 -0.2993,-2.102113 -0.015,-0.828087 0.15601,-1.648894 0.49921,-2.402447 0.3305,-0.683177 0.81815,-1.277953 1.42368,-1.735216 0.66792,-0.486383 1.42251,-0.841145 2.22333,-1.045451 0.91059,-0.239089 1.84892,-0.355109 2.78956,-0.344825 1.26767,-0.0064 2.52725,0.204306 3.72443,0.622857 1.11051,0.361234 2.16093,0.890142 3.11197,1.568235 l -1.73452,3.0587 c -0.76615,-0.562073 -1.61318,-1.004544 -2.51222,-1.31239 -0.88518,-0.291322 -1.81311,-0.434151 -2.74566,-0.422711 -0.74535,-0.06945 -1.49416,0.114749 -2.1228,0.522784 -0.20569,0.152998 -0.37325,0.352798 -0.48649,0.582873 -0.11441,0.230076 -0.17219,0.483956 -0.16872,0.740726 -10e-4,0.249374 0.052,0.49609 0.15485,0.72293 0.14214,0.261969 0.33974,0.489618 0.57779,0.667346 0.34667,0.277339 0.71877,0.519548 1.11166,0.723045 0.46686,0.244636 1.11167,0.522668 1.86742,0.834097 1.11166,0.433804 2.12395,0.856514 2.98023,1.245713 0.76846,0.353953 1.48723,0.810407 2.1332,1.356995 0.56508,0.47633 1.00998,1.078155 1.30118,1.757403 0.31663,0.787758 0.47148,1.63133 0.4553,2.480218 z"
     id="path1064"
     inkscape:connector-curvature="0"
     style="fill:#1b1c20;stroke-width:1.15557814" />
  <path
     d="m 244.78728,43.600195 c -0.53966,0.306575 -1.11976,0.535033 -1.72297,0.678555 -0.72802,0.178537 -1.47452,0.264512 -2.22333,0.25573 -0.61708,0.03039 -1.23416,-0.07107 -1.80848,-0.29733 -0.57548,-0.226263 -1.09549,-0.572243 -1.52652,-1.01506 -0.89904,-1.153267 -1.33123,-2.602362 -1.2122,-4.059777 V 27.450297 h -2.85659 v -3.636951 h 2.90165 v -5.794878 l 3.89084,-2.091019 v 7.885897 h 5.02445 v 3.636951 h -5.03601 v 11.011388 c -0.0763,0.683063 0.0971,1.370747 0.48881,1.935247 0.22071,0.186164 0.47494,0.326335 0.74997,0.41231 0.27503,0.08598 0.56508,0.116021 0.85166,0.08829 0.53966,-5.78e-4 1.07584,-0.08702 1.58892,-0.255845 0.46801,-0.134163 0.91984,-0.320673 1.34509,-0.55618 z"
     id="path1066"
     inkscape:connector-curvature="0"
     style="fill:#1b1c20;stroke-width:1.15557814" />
  <path
     d="m 265.59693,33.556718 c 0,0.355919 0,0.700627 0,1.023265 0,0.322522 -0.0566,0.58946 -0.0786,0.789606 h -13.43938 c 0.0728,0.86576 0.28312,1.714416 0.62286,2.51373 0.25423,0.641923 0.6321,1.227686 1.11167,1.724007 0.44258,0.43415 0.96837,0.774584 1.545,1.000961 0.56739,0.219214 1.17061,0.328647 1.77844,0.322638 0.7985,0.01236 1.59123,-0.131158 2.33427,-0.422711 0.74072,-0.299757 1.43638,-0.700164 2.06733,-1.19013 l 2.35738,2.547126 c -0.92447,0.894648 -2.02111,1.592502 -3.22291,2.051382 -1.2018,0.458765 -2.48449,0.668964 -3.7695,0.618003 -1.14749,-0.001 -2.28342,-0.239667 -3.335,-0.700742 -1.07237,-0.468818 -2.02804,-1.167365 -2.80112,-2.046529 -0.84357,-0.976464 -1.48607,-2.110548 -1.88937,-3.336732 -0.48418,-1.43257 -0.72108,-2.937018 -0.70028,-4.448976 -0.0254,-1.545355 0.19645,-3.0847 0.65521,-4.560258 0.37672,-1.221677 0.99265,-2.355993 1.81195,-3.336732 0.76962,-0.878008 1.72644,-1.5702 2.80112,-2.024342 1.14749,-0.4672 2.37472,-0.701667 3.6135,-0.689649 1.30233,-0.03305 2.59427,0.245329 3.76834,0.812025 1.04464,0.530873 1.95755,1.291359 2.66707,2.224488 0.72686,0.972997 1.26305,2.075072 1.57852,3.247752 0.35014,1.264203 0.52579,2.570122 0.52348,3.881818 z m -4.36924,-3.43692 c -0.18259,-0.591772 -0.47726,-1.143098 -0.86669,-1.623934 -0.39636,-0.47552 -0.89326,-0.855706 -1.45603,-1.112244 -0.66099,-0.29317 -1.3786,-0.433804 -2.10084,-0.411501 -0.59743,-0.02716 -1.19371,0.07835 -1.74492,0.309232 -0.55237,0.230769 -1.0458,0.581025 -1.44563,1.02546 -0.85975,1.077346 -1.36474,2.394589 -1.44563,3.770536 h 9.42721 c -0.0509,-0.663995 -0.17334,-1.320479 -0.36747,-1.957549 z"
     id="path1068"
     inkscape:connector-curvature="0"
     style="fill:#1b1c20;stroke-width:1.15557814" />
  <path
     d="m 280.76967,28.028664 c -0.43219,-0.228111 -0.88633,-0.410693 -1.35665,-0.544971 -0.55583,-0.13578 -1.12784,-0.199337 -1.69986,-0.189053 -0.55814,-0.02889 -1.11513,0.075 -1.62589,0.303109 -0.50961,0.228226 -0.95798,0.574091 -1.30927,1.009397 -0.76731,1.150609 -1.13132,2.523898 -1.03425,3.90389 v 11.589755 h -4.02372 V 23.81323 h 4.02372 v 1.935362 c 0.52579,-0.740725 1.22029,-1.344515 2.02689,-1.760638 0.80659,-0.416124 1.70101,-0.632448 2.60929,-0.630715 0.68064,-0.0171 1.36012,0.05385 2.02342,0.211355 0.50152,0.133585 0.97762,0.347714 1.41096,0.63395 z"
     id="path1070"
     inkscape:connector-curvature="0"
     style="fill:#1b1c20;stroke-width:1.15557814" />
  <path
     d="m 80.246583,56.602414 c 0.02889,0.596971 -0.147683,1.185854 -0.500135,1.668423 -0.353375,0.424444 -0.838603,0.718192 -1.378489,0.834097 l 1.74527,3.503597 h -1.478447 l -1.689686,-3.336732 h -1.934091 v 3.336732 h -1.267323 v -8.564336 h 3.757247 c 0.376372,-0.0052 0.751241,0.04726 1.111666,0.155772 0.3179,0.09464 0.613034,0.253649 0.86703,0.467084 0.261739,0.210084 0.467894,0.481183 0.600208,0.789722 0.140865,0.364585 0.197835,0.756095 0.16675,1.145641 z m -1.289395,0 c 0.01271,-0.189515 -0.01664,-0.379492 -0.08586,-0.556411 -0.0691,-0.176919 -0.176457,-0.336274 -0.314317,-0.466854 -0.310389,-0.258387 -0.708947,-0.386079 -1.111666,-0.355918 h -2.434341 v 2.758365 h 2.489924 c 0.378336,0.01421 0.749277,-0.108162 1.044989,-0.344824 0.131505,-0.129656 0.233311,-0.286237 0.298602,-0.458996 0.06517,-0.172875 0.09221,-0.357767 0.07927,-0.541966 z"
     id="path1072"
     inkscape:connector-curvature="0"
     style="fill:#1b1c20;stroke-width:1.15557814" />
  <path
     d="m 86.927789,59.271799 c 0,0.111282 0,0.222449 0,0.322638 0,0.100073 0,0.189052 0,0.244635 h -4.279684 c 0.02092,0.275144 0.0847,0.545318 0.189053,0.800816 0.08782,0.202688 0.212164,0.38735 0.36678,0.544971 0.143176,0.135087 0.308655,0.244173 0.489156,0.322637 0.181311,0.06737 0.373368,0.101229 0.566927,0.100073 0.250761,0.003 0.499903,-0.04229 0.733561,-0.133469 0.234814,-0.09568 0.455413,-0.222911 0.655906,-0.378221 l 0.74477,0.800816 c -0.274103,0.263934 -0.594429,0.475058 -0.944916,0.622856 -0.402488,0.160741 -0.833981,0.236547 -1.267207,0.222449 -0.363198,-0.0029 -0.721774,-0.08147 -1.052963,-0.230884 -0.331073,-0.149301 -0.627479,-0.366203 -0.87015,-0.636608 -0.258503,-0.311429 -0.461654,-0.665151 -0.600207,-1.045567 -0.148954,-0.459458 -0.220369,-0.940641 -0.21124,-1.423673 -0.0076,-0.489387 0.05986,-0.977041 0.200146,-1.445859 0.124109,-0.382265 0.320326,-0.737143 0.57802,-1.045567 0.243712,-0.27965 0.547744,-0.50025 0.889218,-0.645044 0.352567,-0.146065 0.73021,-0.22164 1.111666,-0.222449 0.41231,-0.0092 0.820576,0.08239 1.189436,0.266939 0.330034,0.162936 0.618928,0.39879 0.844844,0.689533 0.22788,0.31166 0.397287,0.662147 0.500134,1.034358 0.113247,0.401679 0.169292,0.817341 0.16675,1.23462 z m -1.389467,-1.112244 c -0.0587,-0.186972 -0.152999,-0.360656 -0.277917,-0.511574 -0.1233,-0.151381 -0.279072,-0.273063 -0.45576,-0.355918 -0.212164,-0.08401 -0.438773,-0.125612 -0.667,-0.122376 -0.189399,-0.0098 -0.378683,0.02311 -0.553753,0.09626 -0.17507,0.07315 -0.331535,0.184661 -0.457724,0.326335 -0.270752,0.340318 -0.429875,0.755979 -0.45576,1.19013 h 2.97908 c 0.0031,-0.201649 -0.01548,-0.40295 -0.05558,-0.600554 z"
     id="path1074"
     inkscape:connector-curvature="0"
     style="fill:#1b1c20;stroke-width:1.15557814" />
  <path
     d="m 93.375222,63.275993 c -0.08678,0.341473 -0.258966,0.655328 -0.50025,0.912098 -0.26093,0.261623 -0.581256,0.456222 -0.933707,0.567158 -0.473094,0.138553 -0.96329,0.209737 -1.45626,0.211355 l -0.422364,-0.945379 c 0.374985,-0.01259 0.747544,-0.06483 1.111551,-0.155772 0.249374,-0.04611 0.480605,-0.161781 0.667,-0.333615 0.159932,-0.15843 0.271792,-0.358923 0.322406,-0.578367 0.07199,-0.27965 0.10562,-0.567735 0.09996,-0.856399 V 61.98579 c -0.228689,0.211933 -0.482569,0.394977 -0.755863,0.544971 -0.280921,0.146758 -0.594661,0.219444 -0.91152,0.211355 -0.327838,-2.31e-4 -0.652555,-0.06448 -0.95601,-0.189053 -0.307153,-0.134278 -0.575016,-0.344824 -0.778051,-0.611763 -0.249258,-0.331997 -0.430568,-0.709987 -0.53353,-1.112244 -0.134047,-0.51169 -0.197604,-1.039327 -0.189053,-1.568235 0.0013,-0.484996 0.08389,-0.966179 0.244636,-1.423672 0.116713,-0.370825 0.305535,-0.714841 0.555717,-1.012171 0.21956,-0.256538 0.492855,-0.461538 0.800354,-0.60067 0.302761,-0.128153 0.627363,-0.196101 0.95601,-0.200146 0.318824,-0.0018 0.632794,0.07869 0.91152,0.233543 0.260814,0.124109 0.494818,0.297908 0.689187,0.51169 v -0.60067 h 1.267207 v 5.805971 c -0.0034,0.440391 -0.06691,0.87824 -0.188937,1.301297 z m -1.111667,-5.205302 c -0.08262,-0.105504 -0.171719,-0.205808 -0.266707,-0.300335 l -0.355687,-0.266938 c -0.130349,-0.07997 -0.268094,-0.14699 -0.411386,-0.200146 -0.146296,-0.05189 -0.30045,-0.07823 -0.45576,-0.07789 -0.202573,-0.01756 -0.40607,0.02092 -0.588305,0.111166 -0.18235,0.09014 -0.336389,0.228689 -0.445475,0.400408 -0.267401,0.461307 -0.391163,0.991833 -0.355687,1.523861 -0.05004,0.610261 0.08147,1.221677 0.37799,1.757288 0.116944,0.185355 0.282307,0.335233 0.478293,0.433226 0.195871,0.09799 0.414853,0.140518 0.633257,0.122954 0.293864,3.46e-4 0.580794,-0.08886 0.822656,-0.255845 0.23724,-0.153577 0.447556,-0.345172 0.622395,-0.567274 z"
     id="path1076"
     inkscape:connector-curvature="0"
     style="fill:#1b1c20;stroke-width:1.15557814" />
  <path
     d="m 96.887832,54.500301 c 0,0.213436 -0.08401,0.41832 -0.233773,0.570278 -0.149763,0.151959 -0.353376,0.238743 -0.56658,0.241632 -0.109895,0.0025 -0.218982,-0.01791 -0.320442,-0.06009 -0.10146,-0.04218 -0.192981,-0.105042 -0.268787,-0.184545 -0.07581,-0.07338 -0.135665,-0.161666 -0.175764,-0.259312 -0.04021,-0.09753 -0.05986,-0.202457 -0.05766,-0.307962 -0.0017,-0.107122 0.01803,-0.213435 0.05813,-0.312815 0.0401,-0.09938 0.09973,-0.18963 0.175301,-0.265552 0.156234,-0.156465 0.368167,-0.24452 0.589229,-0.244635 0.213551,0.0047 0.416817,0.09256 0.566927,0.244635 0.07557,0.07592 0.135202,0.166173 0.175301,0.265552 0.0401,0.09938 0.05986,0.205693 0.05813,0.312815 z m -1.445166,8.063856 v -6.373245 h 1.267323 v 6.417735 z"
     id="path1078"
     inkscape:connector-curvature="0"
     style="fill:#1b1c20;stroke-width:1.15557814" />
  <path
     d="m 103.07942,60.851243 c 0.0101,0.312353 -0.0587,0.622279 -0.20015,0.900889 -0.13243,0.230191 -0.31478,0.427911 -0.53353,0.578367 -0.23308,0.152652 -0.49354,0.258503 -0.76707,0.311428 -0.29895,0.06806 -0.60483,0.101576 -0.91152,0.100189 -0.44744,-9.25e-4 -0.891297,-0.07997 -1.311696,-0.233658 -0.395092,-0.141096 -0.769153,-0.335696 -1.111551,-0.578367 l 0.578021,-0.956472 c 0.287045,0.202804 0.601478,0.363776 0.933707,0.478178 0.301719,0.09857 0.616499,0.15115 0.933819,0.155772 0.77805,0 1.17823,-0.233542 1.17823,-0.711836 -0.004,-0.126074 -0.044,-0.248334 -0.11486,-0.352682 -0.0708,-0.104349 -0.16976,-0.186395 -0.28532,-0.236778 -0.36181,-0.182235 -0.73286,-0.345634 -1.11155,-0.489388 -0.29906,-0.106197 -0.588995,-0.236315 -0.867027,-0.389314 -0.206848,-0.132545 -0.393936,-0.293517 -0.555833,-0.478294 -0.145718,-0.147567 -0.25596,-0.326335 -0.322406,-0.522783 -0.07084,-0.215169 -0.10458,-0.440853 -0.09996,-0.667347 -0.0045,-0.260467 0.04865,-0.518739 0.155541,-0.756326 0.103887,-0.220022 0.260468,-0.411039 0.45576,-0.556064 0.211356,-0.152652 0.448711,-0.265783 0.700396,-0.333731 0.286929,-0.07326 0.581949,-0.110589 0.878129,-0.111166 0.40087,0.0042 0.7985,0.07165 1.17834,0.200146 0.35661,0.120642 0.69369,0.293054 1.00038,0.51169 l -0.55583,0.967565 c -0.47702,-0.359038 -1.0592,-0.550633 -1.65629,-0.54497 -0.23805,-0.01872 -0.47575,0.03987 -0.678094,0.166865 -0.06656,0.0483 -0.120412,0.11186 -0.157275,0.18547 -0.03675,0.07361 -0.05524,0.154963 -0.05385,0.237125 0.0015,0.07742 0.02045,0.153461 0.05558,0.222449 0.04206,0.08332 0.102962,0.155772 0.177839,0.211355 0.11486,0.08898 0.23759,0.167212 0.36678,0.233658 0.14456,0.07777 0.34459,0.155656 0.58923,0.255729 l 0.9448,0.400408 c 0.24348,0.110705 0.47148,0.252841 0.67809,0.422711 0.17496,0.154154 0.31513,0.343669 0.41127,0.556064 0.081,0.266361 0.10747,0.546357 0.0779,0.823118 z"
     id="path1080"
     inkscape:connector-curvature="0"
     style="fill:#1b1c20;stroke-width:1.15557814" />
  <path
     d="m 107.60339,62.45299 c -0.17148,0.09406 -0.35464,0.165132 -0.54474,0.21124 -0.22545,0.05524 -0.45703,0.08147 -0.68918,0.07789 -0.20442,0.02092 -0.41081,-0.0053 -0.60356,-0.07662 -0.19264,-0.07141 -0.36644,-0.185933 -0.50799,-0.334887 -0.29063,-0.364122 -0.42988,-0.826122 -0.38909,-1.290203 v -3.703859 h -0.92261 v -1.112244 h 0.92261 v -1.868569 l 1.23381,-0.667347 v 2.50252 h 1.58962 v 1.11236 h -1.53403 v 3.492388 c -0.0215,0.215862 0.0336,0.432533 0.15565,0.611763 0.13983,0.115789 0.31952,0.171719 0.50025,0.155656 0.17346,6.94e-4 0.34598,-0.02554 0.51135,-0.07777 0.14652,-0.0446 0.28808,-0.104233 0.42236,-0.177959 z"
     id="path1082"
     inkscape:connector-curvature="0"
     style="fill:#1b1c20;stroke-width:1.15557814" />
  <path
     d="m 112.9172,57.514511 c -0.13612,-0.06702 -0.27734,-0.122838 -0.42248,-0.16675 -0.17899,-0.0386 -0.36158,-0.0572 -0.54462,-0.0557 -0.17542,-0.0091 -0.35037,0.02334 -0.51077,0.09487 -0.16039,0.07153 -0.30149,0.180039 -0.41196,0.316744 -0.24695,0.362158 -0.36447,0.797233 -0.33338,1.234619 v 3.670348 h -1.26733 v -6.417619 h 1.26733 v 0.611647 c 0.1545,-0.227533 0.36504,-0.411386 0.6113,-0.533877 0.26058,-0.148838 0.55595,-0.225569 0.85593,-0.222449 0.21737,-0.0023 0.43416,0.02392 0.64482,0.07789 0.15831,0.04149 0.30854,0.109087 0.44455,0.200262 z"
     id="path1084"
     inkscape:connector-curvature="0"
     style="fill:#1b1c20;stroke-width:1.15557814" />
  <path
     d="m 115.99578,54.500301 c 0.002,0.105505 -0.0173,0.210431 -0.0578,0.307962 -0.0393,0.09765 -0.0994,0.185932 -0.17565,0.259312 -0.1144,0.109433 -0.2585,0.18339 -0.41439,0.212857 -0.15577,0.02947 -0.31674,0.01329 -0.4635,-0.04668 -0.14687,-0.05998 -0.27318,-0.161088 -0.36389,-0.291206 -0.0908,-0.130118 -0.14202,-0.283694 -0.14745,-0.44224 -0.002,-0.108162 0.0182,-0.215631 0.0604,-0.315357 0.0421,-0.09961 0.10481,-0.189284 0.18409,-0.26301 0.1478,-0.146758 0.34759,-0.229035 0.55583,-0.229035 0.20812,0 0.40746,0.08228 0.55537,0.229035 0.082,0.07303 0.14791,0.162013 0.19414,0.261508 0.0451,0.0995 0.0705,0.207311 0.0728,0.316859 z m -1.43373,8.063856 v -6.373245 h 1.26733 v 6.417735 z"
     id="path1086"
     inkscape:connector-curvature="0"
     style="fill:#1b1c20;stroke-width:1.15557814" />
  <path
     d="m 120.76485,62.45299 c -0.16987,0.0958 -0.35361,0.166981 -0.54428,0.21124 -0.22533,0.05651 -0.45761,0.08274 -0.68988,0.07789 -0.20338,0.0193 -0.41023,-0.0077 -0.60205,-0.07893 -0.19298,-0.0713 -0.36632,-0.184893 -0.50846,-0.332576 -0.28196,-0.368282 -0.41716,-0.828087 -0.37903,-1.290203 V 57.336552 H 117.119 v -1.112244 h 0.92215 v -1.868569 l 1.23416,-0.667347 v 2.50252 h 1.59008 v 1.11236 h -1.59008 v 3.492388 c -0.0243,0.214591 0.0266,0.431031 0.14445,0.611763 0.1456,0.113478 0.32818,0.168946 0.51192,0.155772 0.16987,0.0013 0.33858,-0.02496 0.50036,-0.07789 0.15023,-0.0446 0.29468,-0.104233 0.43335,-0.177959 z"
     id="path1088"
     inkscape:connector-curvature="0"
     style="fill:#1b1c20;stroke-width:1.15557814" />
  <path
     d="m 127.55734,59.271915 c 0.006,0.107468 0.006,0.215053 0,0.322522 0,0.100073 0,0.189052 0,0.244751 h -4.28026 c 0.0243,0.275721 0.0913,0.546011 0.19991,0.800816 0.0797,0.206964 0.2057,0.393358 0.36748,0.54497 0.13867,0.139825 0.30507,0.249605 0.48881,0.322522 0.17795,0.06633 0.36631,0.100189 0.55583,0.100073 0.25423,0.0031 0.5073,-0.04218 0.74419,-0.133469 0.23227,-0.100651 0.45299,-0.227533 0.65637,-0.378105 l 0.74419,0.800815 c -0.27965,0.261046 -0.60321,0.471707 -0.95566,0.622857 -0.39868,0.160741 -0.82624,0.236547 -1.25611,0.222449 -0.3825,0.0096 -0.76153,-0.06633 -1.11167,-0.222449 -0.33859,-0.143869 -0.63904,-0.3647 -0.87824,-0.645159 -0.26578,-0.305882 -0.47032,-0.660991 -0.59975,-1.045452 -0.15831,-0.457609 -0.23342,-0.939716 -0.22302,-1.423672 -0.009,-0.490312 0.0624,-0.97889 0.21147,-1.445975 0.11671,-0.383421 0.30969,-0.739108 0.56739,-1.045452 0.24382,-0.279765 0.54774,-0.500365 0.88864,-0.645159 0.35245,-0.145949 0.73032,-0.221524 1.11166,-0.222449 0.41255,-0.01051 0.82162,0.08124 1.19025,0.266939 0.33165,0.159932 0.62054,0.396248 0.84473,0.689649 0.22765,0.311659 0.39752,0.662146 0.50036,1.034358 0.1352,0.398443 0.21378,0.814105 0.23343,1.23462 z m -1.39016,-1.112244 c -0.0543,-0.188822 -0.14907,-0.36343 -0.27734,-0.51169 -0.12134,-0.153692 -0.27734,-0.275837 -0.45645,-0.355918 -0.21147,-0.08609 -0.43797,-0.127692 -0.66677,-0.122376 -0.18952,-0.0098 -0.37903,0.02311 -0.55352,0.09626 -0.17565,0.07315 -0.33166,0.184661 -0.45761,0.32645 -0.27156,0.340318 -0.42988,0.755864 -0.45646,1.19013 h 2.99064 c -0.0185,-0.204075 -0.0601,-0.405492 -0.12249,-0.600669 z"
     id="path1090"
     inkscape:connector-curvature="0"
     style="fill:#1b1c20;stroke-width:1.15557814" />
  <path
     d="m 133.59292,63.398369 c -0.0578,0.268903 -0.17102,0.522668 -0.3328,0.745116 -0.1849,0.222796 -0.41601,0.401448 -0.67833,0.522784 -0.35592,0.156696 -0.72917,0.268672 -1.11166,0.333731 l -0.42295,-0.945494 c 0.23805,-0.06899 0.47148,-0.150687 0.70029,-0.244636 0.15831,-0.07303 0.29813,-0.179346 0.41138,-0.311428 0.10054,-0.129425 0.1664,-0.28277 0.18952,-0.444898 0.0139,-0.225915 0.0139,-0.452524 0,-0.67844 v -6.184192 h 1.26651 v 6.095213 c 0.03,0.370478 0.022,0.743036 -0.022,1.112244 z m 0.25539,-8.820182 c 0.002,0.105505 -0.0173,0.210316 -0.0566,0.307962 -0.0404,0.09765 -0.10053,0.185817 -0.1768,0.259312 -0.12018,0.09614 -0.26694,0.156234 -0.42063,0.173336 -0.15369,0.01699 -0.30854,-0.0097 -0.44837,-0.07708 -0.13866,-0.06737 -0.25653,-0.172643 -0.33858,-0.303801 -0.082,-0.131158 -0.12596,-0.28277 -0.12596,-0.437618 -0.002,-0.108162 0.0185,-0.215631 0.0601,-0.315357 0.0428,-0.09961 0.10516,-0.189284 0.18489,-0.26301 0.14792,-0.146758 0.34668,-0.229035 0.55584,-0.229035 0.208,0 0.40792,0.08228 0.55583,0.229035 0.0717,0.07766 0.12711,0.16883 0.16294,0.268095 0.0358,0.09926 0.052,0.204652 0.0474,0.310272 z"
     id="path1092"
     inkscape:connector-curvature="0"
     style="fill:#1b1c20;stroke-width:1.15557814" />
  <path
     d="m 139.22868,62.608647 v -0.634066 c -0.22418,0.227187 -0.48766,0.411848 -0.77771,0.545086 -0.30276,0.152883 -0.63903,0.229267 -0.97877,0.222449 -0.26694,5.78e-4 -0.53272,-0.03686 -0.78926,-0.111282 -0.26116,-0.07407 -0.50383,-0.20292 -0.71068,-0.378106 -0.22303,-0.179461 -0.40214,-0.407803 -0.52232,-0.667346 -0.14214,-0.318015 -0.21032,-0.663995 -0.20107,-1.012171 -0.003,-0.317784 0.0612,-0.632563 0.18951,-0.923191 0.1248,-0.257116 0.31201,-0.478987 0.54428,-0.645159 0.23805,-0.180617 0.51076,-0.309464 0.80081,-0.378106 0.33397,-0.08782 0.67717,-0.129078 1.02269,-0.122375 0.4865,-0.01988 0.97069,0.06356 1.42252,0.244751 v -0.478294 c 0.0115,-0.149878 -0.0116,-0.300334 -0.0647,-0.440737 -0.0543,-0.140287 -0.13752,-0.267054 -0.24614,-0.371172 -0.24961,-0.203382 -0.56855,-0.302877 -0.8898,-0.278148 -0.30276,-0.004 -0.60552,0.02958 -0.90019,0.100189 -0.27156,0.0639 -0.53388,0.164901 -0.77771,0.300219 l -0.48881,-0.956472 c 0.30854,-0.185932 0.64135,-0.328184 0.98918,-0.42271 0.39405,-0.107353 0.80197,-0.159817 1.21104,-0.155657 0.62633,-0.0282 1.24225,0.160395 1.74493,0.533877 0.22996,0.200031 0.41023,0.451023 0.52579,0.732868 0.11555,0.281961 0.16409,0.587034 0.14213,0.890951 v 4.449091 z m 0,-2.736178 c -0.18836,-0.10042 -0.39059,-0.171604 -0.59975,-0.211356 -0.28658,-0.05316 -0.57663,-0.07927 -0.86784,-0.07789 -0.33742,-0.01629 -0.67139,0.07315 -0.95566,0.255845 -0.11325,0.07719 -0.20569,0.181888 -0.26809,0.304495 -0.0624,0.122492 -0.0925,0.25885 -0.0878,0.396248 -0.007,0.141905 0.0162,0.283694 0.0682,0.416008 0.052,0.132429 0.13058,0.252147 0.23227,0.351411 0.12827,0.109087 0.27734,0.191826 0.43681,0.243365 0.16063,0.05154 0.32934,0.07084 0.4969,0.05697 0.32587,0.0024 0.64481,-0.08621 0.92331,-0.255845 0.24151,-0.147683 0.45298,-0.340202 0.6217,-0.567158 z"
     id="path1094"
     inkscape:connector-curvature="0"
     style="fill:#1b1c20;stroke-width:1.15557814" />
  <path
     d="M 145.75423,62.608647 V 54.04431 h 1.26651 v 8.564337 z"
     id="path1096"
     inkscape:connector-curvature="0"
     style="fill:#1b1c20;stroke-width:1.15557814" />
  <path
     d="m 152.99046,62.608647 v -3.65937 c 0.0462,-0.482107 -0.0751,-0.965716 -0.34436,-1.367973 -0.12365,-0.131043 -0.27503,-0.233658 -0.44143,-0.300797 -0.16641,-0.06725 -0.34668,-0.09741 -0.52579,-0.08852 -0.1849,-0.01398 -0.36979,0.01837 -0.5385,0.09418 -0.16987,0.07569 -0.31663,0.192404 -0.42872,0.339625 -0.24845,0.349331 -0.36979,0.773197 -0.34436,1.201223 v 3.748233 h -1.26767 V 56.19091 h 1.26767 v 0.611763 c 0.17218,-0.242209 0.40676,-0.43415 0.67716,-0.556064 0.2993,-0.129309 0.62055,-0.197373 0.94527,-0.200262 0.32009,-0.01976 0.64019,0.03536 0.93602,0.160741 0.29467,0.125496 0.55698,0.318015 0.76499,0.562189 0.42987,0.633372 0.63441,1.393858 0.57779,2.157811 v 3.681557 z"
     id="path1098"
     inkscape:connector-curvature="0"
     style="fill:#1b1c20;stroke-width:1.15557814" />
  <path
     d="m 158.1478,54.822939 c -0.16409,-0.01317 -0.32818,0.03871 -0.45529,0.144563 -0.10632,0.139709 -0.1537,0.315126 -0.13405,0.489387 v 0.734139 h 1.19024 v 1.112244 h -1.19024 v 5.249791 h -1.26651 v -5.194208 h -0.83433 v -1.112244 h 0.83433 v -0.845305 c -0.008,-0.255036 0.037,-0.508917 0.13289,-0.745233 0.0728,-0.195755 0.19067,-0.371171 0.34436,-0.511574 0.15254,-0.129194 0.33049,-0.224067 0.52348,-0.278148 0.20569,-0.05836 0.41832,-0.08829 0.63325,-0.08898 h 0.50037 c 0.15485,0.01918 0.30738,0.05269 0.4553,0.100188 v 1.112244 c -0.23459,-0.09314 -0.48188,-0.149416 -0.7338,-0.166865 z"
     id="path1100"
     inkscape:connector-curvature="0"
     style="fill:#1b1c20;stroke-width:1.15557814" />
  <path
     d="m 165.4187,59.371988 c 0.003,0.483494 -0.0716,0.964445 -0.22303,1.423672 -0.1248,0.408728 -0.3328,0.787295 -0.6113,1.11236 -0.26,0.278032 -0.57432,0.501174 -0.92215,0.656137 -0.35245,0.145256 -0.73032,0.220715 -1.11166,0.222449 -0.38366,0.0039 -0.76269,-0.07569 -1.11167,-0.233543 -0.34205,-0.163514 -0.64828,-0.394283 -0.9002,-0.67844 -0.26231,-0.331766 -0.46223,-0.708716 -0.58934,-1.112244 -0.14907,-0.44039 -0.22072,-0.903315 -0.21147,-1.368089 -0.008,-0.479333 0.0636,-0.956703 0.21147,-1.412578 0.13058,-0.406417 0.33858,-0.78406 0.6113,-1.112244 0.24614,-0.284273 0.55468,-0.508686 0.9002,-0.656253 0.35014,-0.154154 0.72917,-0.233774 1.11166,-0.233543 0.38365,0.0023 0.76268,0.08574 1.11167,0.244636 0.34898,0.152421 0.66099,0.380301 0.91175,0.667347 0.27041,0.303108 0.47494,0.659142 0.59974,1.045567 0.15947,0.461307 0.23459,0.947112 0.22303,1.434766 z m -1.27922,0 c 0.0312,-0.556064 -0.12134,-1.106929 -0.43335,-1.568235 -0.1352,-0.189862 -0.31662,-0.343092 -0.52578,-0.446054 -0.20916,-0.102846 -0.44143,-0.152074 -0.67486,-0.143407 -0.21956,-0.0029 -0.43681,0.04969 -0.63095,0.152652 -0.19413,0.102962 -0.35938,0.253187 -0.48072,0.436809 -0.29698,0.454373 -0.44143,0.99241 -0.41023,1.534954 -0.0404,0.572589 0.11672,1.141711 0.44374,1.612725 0.12943,0.173337 0.29699,0.313971 0.48997,0.410577 0.19298,0.09649 0.40561,0.146412 0.6217,0.145487 0.22996,0.0017 0.4553,-0.0557 0.65637,-0.16675 0.19414,-0.1181 0.36401,-0.273063 0.50036,-0.456106 0.1433,-0.205809 0.24845,-0.435538 0.31086,-0.67844 0.0809,-0.259543 0.12595,-0.529024 0.13289,-0.800816 z"
     id="path1102"
     inkscape:connector-curvature="0"
     style="fill:#1b1c20;stroke-width:1.15557814" />
  <path
     d="m 171.29828,60.851359 c 0.0127,0.288432 -0.0485,0.575247 -0.1768,0.833865 -0.12827,0.258734 -0.3201,0.480721 -0.55699,0.64539 -0.23227,0.152652 -0.49343,0.258388 -0.76615,0.311429 -0.29929,0.06806 -0.60552,0.101575 -0.91175,0.100073 -0.44721,-9.25e-4 -0.8921,-0.07997 -1.31158,-0.233542 -0.39636,-0.139363 -0.77077,-0.334078 -1.11167,-0.578367 l 0.57779,-0.956588 c 0.28659,0.20292 0.6009,0.363892 0.93371,0.478294 0.30161,0.09857 0.61592,0.151034 0.93371,0.155772 0.7777,0 1.16713,-0.233658 1.16713,-0.711836 -0.005,-0.124572 -0.0428,-0.245445 -0.11209,-0.349447 -0.0682,-0.104002 -0.16409,-0.187088 -0.27734,-0.240129 -0.36169,-0.182235 -0.73263,-0.345518 -1.11166,-0.489388 -0.2993,-0.103886 -0.58935,-0.234235 -0.86669,-0.389198 -0.21609,-0.116252 -0.4137,-0.262317 -0.58934,-0.433804 -0.14907,-0.144679 -0.26001,-0.324371 -0.32241,-0.522784 -0.0705,-0.215169 -0.104,-0.440853 -0.0994,-0.667346 -0.005,-0.260468 0.0485,-0.518739 0.15485,-0.756326 0.104,-0.220022 0.26116,-0.411155 0.45645,-0.55618 0.21032,-0.154848 0.44721,-0.268094 0.70028,-0.333615 0.28659,-0.07326 0.58126,-0.110705 0.87824,-0.111283 0.79735,-3.46e-4 1.5739,0.248565 2.22333,0.711836 l -0.55583,0.967682 c -0.48072,-0.361465 -1.0666,-0.553176 -1.6675,-0.544971 -0.23458,-0.01629 -0.46801,0.04206 -0.66677,0.166865 -0.0682,0.0468 -0.12364,0.110243 -0.16062,0.184084 -0.037,0.07396 -0.0543,0.156003 -0.0508,0.238511 -0.0162,0.07326 -0.0162,0.149186 0,0.222449 0.0416,0.08332 0.10285,0.155657 0.17796,0.211355 0.1144,0.08898 0.23689,0.167213 0.36632,0.233543 0.14445,0.07789 0.34436,0.155772 0.58934,0.255845 l 0.94527,0.400408 c 0.24267,0.110704 0.47147,0.25284 0.67832,0.42271 0.17103,0.157159 0.31085,0.34598 0.41023,0.556064 0.0913,0.249259 0.13174,0.513655 0.12249,0.778629 z"
     id="path1104"
     inkscape:connector-curvature="0"
     style="fill:#1b1c20;stroke-width:1.15557814" />
  <path
     d="M 176.74568,62.608647 V 61.98579 c -0.1664,0.247871 -0.4033,0.441315 -0.67833,0.55618 -0.29351,0.133585 -0.6113,0.201879 -0.9337,0.200146 -0.32241,0.02334 -0.64482,-0.03005 -0.94295,-0.155772 -0.29699,-0.125611 -0.56046,-0.31998 -0.76846,-0.567158 -0.42757,-0.631061 -0.63095,-1.386578 -0.57895,-2.146602 v -3.681556 h 1.27923 v 3.625857 c -0.0474,0.482223 0.0739,0.965833 0.34436,1.368089 0.12018,0.131274 0.26925,0.234352 0.4345,0.301606 0.16524,0.06725 0.3432,0.09718 0.52116,0.08771 0.18489,0.01398 0.36979,-0.01837 0.5385,-0.09418 0.16872,-0.07569 0.31663,-0.192519 0.42872,-0.339624 0.25192,-0.347714 0.37325,-0.772851 0.34436,-1.201224 v -3.748233 h 1.26767 v 6.417619 z m -1.71257,-8.108346 c 0.002,0.108162 -0.0185,0.2154 -0.0612,0.315011 -0.0416,0.09961 -0.10401,0.189284 -0.18259,0.263472 -0.0739,0.07627 -0.16178,0.137167 -0.25884,0.17923 -0.0982,0.04195 -0.20223,0.06425 -0.30854,0.06541 -0.10978,0.0012 -0.21841,-0.01999 -0.31894,-0.06194 -0.10169,-0.04206 -0.19299,-0.104233 -0.27041,-0.182697 -0.0763,-0.0765 -0.13751,-0.167559 -0.17911,-0.267748 -0.0416,-0.100188 -0.0636,-0.207657 -0.0636,-0.316281 0,-0.108509 0.022,-0.215978 0.0636,-0.316167 0.0416,-0.100304 0.10284,-0.191248 0.17911,-0.267747 0.0751,-0.08066 0.1664,-0.144332 0.2681,-0.18651 0.10169,-0.04218 0.21147,-0.06206 0.32125,-0.05813 0.10631,-0.0015 0.21147,0.01953 0.30969,0.06171 0.0982,0.04218 0.18489,0.10458 0.25769,0.182928 0.0797,0.07581 0.14214,0.167443 0.18374,0.268903 0.0428,0.101575 0.0636,0.210777 0.0601,0.320557 z m 2.39089,0 c 0.001,0.138439 -0.0312,0.275028 -0.0948,0.397635 -0.0647,0.122722 -0.15832,0.227418 -0.27272,0.304957 -0.1144,0.07754 -0.24614,0.125265 -0.38365,0.139016 -0.13752,0.01387 -0.27619,-0.0068 -0.40446,-0.06021 -0.12711,-0.05327 -0.2392,-0.137398 -0.32702,-0.244982 -0.0867,-0.107469 -0.14561,-0.235045 -0.17103,-0.370941 -0.0254,-0.136011 -0.0162,-0.276183 0.0254,-0.408035 0.0416,-0.131735 0.11672,-0.250991 0.2161,-0.346904 0.15138,-0.139132 0.35014,-0.216324 0.55583,-0.216324 0.20569,0 0.40445,0.07719 0.55583,0.216324 0.0878,0.07257 0.15947,0.162359 0.21032,0.263703 0.052,0.101344 0.082,0.21228 0.0901,0.325757 z"
     id="path1106"
     inkscape:connector-curvature="0"
     style="fill:#1b1c20;stroke-width:1.15557814" />
  <path
     d="m 184.29276,60.851243 c 0.0104,0.312353 -0.0578,0.622279 -0.19992,0.900889 -0.12942,0.232618 -0.312,0.430915 -0.53387,0.578367 -0.23227,0.152652 -0.49343,0.258503 -0.76615,0.311428 -0.2993,0.06806 -0.60552,0.101576 -0.91175,0.100189 -0.44721,-0.0018 -0.89095,-0.08089 -1.31158,-0.233658 -0.39521,-0.141096 -0.76962,-0.335696 -1.11167,-0.578367 l 0.57779,-0.956472 c 0.28774,0.202804 0.60206,0.363776 0.93371,0.478178 0.3016,0.09857 0.61708,0.15115 0.9337,0.155772 0.77886,0 1.17869,-0.233542 1.17869,-0.711836 -0.005,-0.126074 -0.0439,-0.248334 -0.11555,-0.352682 -0.0705,-0.104349 -0.16872,-0.186395 -0.28428,-0.236778 -0.26693,-0.144679 -0.63441,-0.300335 -1.11166,-0.489388 -0.30276,-0.106313 -0.59628,-0.236431 -0.87824,-0.389314 -0.22534,-0.131274 -0.42988,-0.29213 -0.6113,-0.478294 -0.14561,-0.147567 -0.25654,-0.326335 -0.32241,-0.522783 -0.0717,-0.215169 -0.10516,-0.440853 -0.10053,-0.667347 -0.005,-0.260467 0.0485,-0.518739 0.156,-0.756326 0.10747,-0.217711 0.26347,-0.408034 0.4553,-0.556064 0.21262,-0.151496 0.44952,-0.264396 0.70028,-0.333731 0.28658,-0.07326 0.58241,-0.110589 0.87824,-0.111166 0.40098,0.0042 0.7985,0.07165 1.17869,0.200146 0.35591,0.120642 0.69334,0.293054 1.00073,0.51169 l -0.55584,0.967565 c -0.24036,-0.177959 -0.50614,-0.316859 -0.78926,-0.411501 -0.2808,-0.09106 -0.57316,-0.136127 -0.86784,-0.133469 -0.23804,-0.01872 -0.47609,0.03987 -0.67832,0.166865 -0.0659,0.0483 -0.12018,0.11186 -0.15716,0.18547 -0.037,0.07361 -0.0555,0.154963 -0.0532,0.237125 -0.0162,0.07326 -0.0162,0.149301 0,0.222449 0.0416,0.08332 0.10285,0.155772 0.17796,0.211355 0.11441,0.08898 0.2369,0.167212 0.36632,0.233658 0.14445,0.07777 0.34436,0.155656 0.58935,0.255729 l 0.94526,0.400408 c 0.24267,0.110705 0.47032,0.252841 0.67717,0.422711 0.17565,0.154154 0.31547,0.343669 0.41138,0.556064 0.1225,0.257694 0.19067,0.537922 0.19992,0.823118 z"
     id="path1108"
     inkscape:connector-curvature="0"
     style="fill:#1b1c20;stroke-width:1.15557814" />
  <path
     d="m 188.818,62.45299 c -0.17218,0.09406 -0.35476,0.165132 -0.54543,0.21124 -0.22534,0.05593 -0.45645,0.08205 -0.68872,0.07789 -0.1953,0.01248 -0.39174,-0.01791 -0.57317,-0.0891 -0.18258,-0.07107 -0.34783,-0.181079 -0.48303,-0.322407 -0.28543,-0.366664 -0.4241,-0.8267 -0.38943,-1.290203 v -3.703859 h -0.92215 v -1.112244 h 0.92215 v -1.868569 l 1.23416,-0.667347 v 2.50252 h 1.60047 v 1.11236 h -1.58892 v 3.492388 c -0.022,0.215862 0.0335,0.432533 0.15485,0.611763 0.13982,0.115789 0.32009,0.171719 0.50036,0.155656 0.17334,6.94e-4 0.34668,-0.02554 0.51192,-0.07777 0.14561,-0.0446 0.28774,-0.104233 0.42179,-0.177959 z"
     id="path1110"
     inkscape:connector-curvature="0"
     style="fill:#1b1c20;stroke-width:1.15557814" />
  <path
     d="m 195.64285,59.271799 c 0.006,0.107469 0.006,0.215169 0,0.322638 0.008,0.08135 0.008,0.163283 0,0.244635 h -4.24675 c 0.0243,0.275837 0.0924,0.546011 0.20107,0.800816 0.0878,0.202688 0.21147,0.38735 0.36632,0.544971 0.14098,0.137629 0.30738,0.247062 0.48881,0.322637 0.18142,0.06737 0.3744,0.101229 0.56739,0.100073 0.25076,0.003 0.50036,-0.04229 0.73379,-0.133469 0.23342,-0.09811 0.45414,-0.225107 0.65521,-0.378221 l 0.74535,0.800931 c -0.2785,0.264166 -0.60206,0.475174 -0.95566,0.622857 -0.39868,0.161665 -0.8274,0.237471 -1.25612,0.222449 -0.38365,0.01271 -0.76384,-0.06344 -1.11166,-0.222449 -0.34206,-0.143754 -0.64713,-0.364585 -0.8898,-0.645159 -0.26694,-0.305882 -0.47032,-0.661106 -0.59974,-1.045567 -0.1537,-0.45888 -0.22881,-0.939948 -0.22303,-1.423673 -0.009,-0.490311 0.0624,-0.97889 0.21147,-1.445859 0.12018,-0.384114 0.31663,-0.739801 0.57779,-1.045567 0.2392,-0.279534 0.53965,-0.50025 0.87824,-0.645044 0.35361,-0.144216 0.73032,-0.219675 1.11166,-0.222449 0.41601,-0.0092 0.8274,0.08239 1.20065,0.266939 0.32703,0.163052 0.61246,0.398905 0.83317,0.689533 0.23574,0.30854 0.41023,0.659836 0.51192,1.034474 0.11903,0.401332 0.18605,0.816185 0.19992,1.234504 z m -1.37861,-1.112244 c -0.0578,-0.186857 -0.15253,-0.360656 -0.27734,-0.511574 -0.12364,-0.151381 -0.27965,-0.273063 -0.45645,-0.355918 -0.21147,-0.08401 -0.43796,-0.125612 -0.66677,-0.122376 -0.18951,-0.01144 -0.37903,0.02069 -0.55467,0.09395 -0.17565,0.07326 -0.33166,0.185702 -0.45646,0.328647 -0.27503,0.33766 -0.43565,0.754823 -0.45645,1.19013 h 2.98023 c -0.03,-0.205346 -0.082,-0.406764 -0.156,-0.600554 z"
     id="path1112"
     inkscape:connector-curvature="0"
     style="fill:#1b1c20;stroke-width:1.15557814" />
  <path
     d="m 202.31285,59.271799 c 0.006,0.107469 0.006,0.215169 0,0.322638 0.007,0.08135 0.007,0.163283 0,0.244635 h -4.2352 c 0.015,0.275952 0.0786,0.547051 0.18836,0.800816 0.0878,0.202688 0.21263,0.38735 0.36747,0.544971 0.14098,0.137629 0.30623,0.247062 0.48881,0.322637 0.18143,0.06737 0.37326,0.101229 0.56624,0.100073 0.25076,0.003 0.50036,-0.04229 0.73379,-0.133469 0.23343,-0.09811 0.45414,-0.225107 0.65637,-0.378221 l 0.74419,0.800931 c -0.27618,0.266361 -0.59974,0.477716 -0.95566,0.622857 -0.39868,0.161665 -0.82624,0.237471 -1.25612,0.222449 -0.38249,0.01271 -0.76268,-0.06344 -1.11166,-0.222449 -0.34205,-0.143754 -0.64597,-0.364585 -0.88864,-0.645159 -0.26694,-0.305882 -0.47148,-0.661106 -0.6009,-1.045567 -0.15254,-0.45888 -0.22765,-0.939948 -0.22187,-1.423673 -0.005,-0.489965 0.067,-0.977619 0.21031,-1.445859 0.1248,-0.382265 0.32125,-0.737143 0.57895,-1.045567 0.24151,-0.282077 0.54543,-0.503139 0.88864,-0.645044 0.35245,-0.146643 0.73032,-0.222218 1.11166,-0.222449 0.41601,-0.0092 0.8274,0.08239 1.20065,0.266939 0.32818,0.165825 0.61708,0.401101 0.84473,0.689533 0.22764,0.31166 0.39751,0.662147 0.50036,1.034474 0.12134,0.400523 0.18489,0.816185 0.18952,1.234504 z m -1.37861,-1.112244 c -0.0589,-0.186857 -0.15369,-0.360656 -0.27849,-0.511574 -0.1225,-0.151381 -0.2785,-0.273063 -0.4553,-0.355918 -0.21263,-0.08401 -0.43912,-0.125612 -0.66677,-0.122376 -0.18952,-0.01063 -0.37903,0.02184 -0.55468,0.0951 -0.17565,0.07315 -0.33165,0.185239 -0.45761,0.327491 -0.2704,0.340433 -0.42987,0.755979 -0.45529,1.19013 h 2.97908 c -0.008,-0.202804 -0.0381,-0.404221 -0.089,-0.600554 z"
     id="path1114"
     inkscape:connector-curvature="0"
     style="fill:#1b1c20;stroke-width:1.15557814" />
  <path
     d="m 211.32751,62.608531 v -3.659254 c 0.0416,-0.475982 -0.0636,-0.953236 -0.30045,-1.368089 -0.11325,-0.134162 -0.25769,-0.239436 -0.41947,-0.307037 -0.16294,-0.06772 -0.33859,-0.09591 -0.51424,-0.08228 -0.17796,-0.01248 -0.35592,0.0208 -0.5177,0.09672 -0.16178,0.07592 -0.30045,0.191941 -0.40445,0.337082 -0.22187,0.3595 -0.32703,0.779322 -0.30045,1.201224 v 3.748348 h -1.26651 v -3.625973 c 0.0381,-0.477138 -0.0705,-0.954738 -0.31201,-1.368089 -0.11209,-0.132545 -0.25423,-0.236893 -0.41485,-0.304495 -0.16063,-0.0676 -0.33396,-0.09661 -0.5073,-0.08482 -0.17911,-0.0083 -0.35823,0.02669 -0.52001,0.102269 -0.16294,0.07546 -0.30507,0.189283 -0.4137,0.331535 -0.22302,0.3595 -0.32703,0.779322 -0.30045,1.201224 v 3.748348 h -1.26767 v -6.384338 h 1.26767 v 0.611648 c 0.16409,-0.233196 0.38134,-0.423866 0.63326,-0.556065 0.28196,-0.131273 0.58934,-0.199568 0.90019,-0.200261 0.38597,-0.01629 0.76962,0.06806 1.11167,0.244751 0.28774,0.170679 0.52232,0.416933 0.67833,0.711836 0.11093,-0.140171 0.23342,-0.270405 0.36747,-0.389314 0.12365,-0.122029 0.26578,-0.223489 0.42179,-0.300335 0.16409,-0.08944 0.33974,-0.153229 0.52232,-0.189052 0.2184,-0.05177 0.44258,-0.07789 0.66792,-0.07789 0.31547,-0.02242 0.63095,0.03155 0.921,0.15739 0.2912,0.125842 0.54659,0.319864 0.74534,0.565655 0.39983,0.645622 0.58588,1.40033 0.53388,2.157696 v 3.681556 z"
     id="path1116"
     inkscape:connector-curvature="0"
     style="fill:#1b1c20;stroke-width:1.15557814" />
  <path
     d="m 215.86315,54.500301 c 0.002,0.105505 -0.0173,0.210431 -0.0578,0.307962 -0.0405,0.09765 -0.0994,0.185932 -0.17565,0.259312 -0.074,0.0787 -0.16409,0.141096 -0.26347,0.183274 -0.0994,0.04206 -0.20685,0.06298 -0.31432,0.06136 -0.21494,0 -0.42179,-0.08551 -0.57432,-0.237703 -0.15138,-0.152305 -0.2369,-0.358807 -0.2369,-0.574207 -0.002,-0.107122 0.0173,-0.213435 0.0578,-0.312815 0.0405,-0.09938 0.0994,-0.18963 0.17565,-0.265552 0.0751,-0.07708 0.16525,-0.138553 0.26347,-0.180501 0.0994,-0.04206 0.20685,-0.06379 0.31432,-0.06413 0.21725,0.0018 0.42525,0.0899 0.57779,0.244635 0.0751,0.07592 0.1352,0.166173 0.17565,0.265552 0.0393,0.09938 0.0601,0.205693 0.0578,0.312815 z m -1.44562,8.063856 v -6.373245 h 1.23415 v 6.417735 z"
     id="path1118"
     inkscape:connector-curvature="0"
     style="fill:#1b1c20;stroke-width:1.15557814" />
  <path
     d="M 221.43189,62.608647 V 61.98579 c -0.22996,0.214591 -0.48766,0.397866 -0.76615,0.544971 -0.28081,0.146642 -0.59513,0.219444 -0.91175,0.211355 -0.33165,5.78e-4 -0.65984,-0.06367 -0.96722,-0.189168 -0.30854,-0.136705 -0.5801,-0.346674 -0.78926,-0.611648 -0.24961,-0.330148 -0.42757,-0.709063 -0.52232,-1.112359 -0.13983,-0.51065 -0.20339,-1.038981 -0.18952,-1.568235 -0.008,-0.485806 0.0601,-0.969877 0.20107,-1.434766 0.1248,-0.367127 0.31316,-0.709641 0.55584,-1.012171 0.22302,-0.257001 0.50036,-0.462 0.81121,-0.60067 0.30276,-0.126998 0.62748,-0.194946 0.95566,-0.200146 0.32241,-0.0017 0.64019,0.07869 0.92216,0.233542 0.26231,0.126999 0.50036,0.300335 0.70028,0.51169 v -2.446936 l 1.24571,-0.656253 v 8.897952 z m 0,-4.538071 c -0.0821,-0.105505 -0.17103,-0.205809 -0.26579,-0.300335 -0.11209,-0.08898 -0.22302,-0.177844 -0.35592,-0.266939 -0.13404,-0.07985 -0.27618,-0.146989 -0.42294,-0.200146 -0.1456,-0.05373 -0.30045,-0.08008 -0.45529,-0.07789 -0.20223,-0.01745 -0.40677,0.02103 -0.58819,0.111167 -0.18259,0.09025 -0.33628,0.228804 -0.44606,0.400523 -0.26694,0.461191 -0.39058,0.991717 -0.35592,1.523746 -0.0474,0.608758 0.0797,1.218557 0.36748,1.757403 0.11902,0.182812 0.28543,0.330611 0.48072,0.428257 0.19529,0.09776 0.41254,0.14179 0.63094,0.127807 0.29699,-8.09e-4 0.58704,-0.08979 0.83318,-0.255729 0.23573,-0.156581 0.44489,-0.347829 0.62285,-0.567274 z"
     id="path1120"
     inkscape:connector-curvature="0"
     style="fill:#1b1c20;stroke-width:1.15557814" />
  <path
     d="m 229.70236,59.271915 c 0.006,0.107468 0.006,0.215053 0,0.322522 0,0.100073 0,0.189052 0,0.244751 h -4.2456 c 0.0243,0.275721 0.0913,0.546011 0.19992,0.800816 0.0878,0.202572 0.21147,0.387349 0.36632,0.54497 0.14098,0.137514 0.30738,0.246947 0.48881,0.322522 0.17796,0.06633 0.36632,0.100189 0.55583,0.100073 0.25538,0.0039 0.50845,-0.04137 0.74535,-0.133469 0.23343,-0.09799 0.45414,-0.225107 0.65521,-0.378105 l 0.74535,0.800815 c -0.2785,0.264166 -0.60206,0.47529 -0.95566,0.622857 -0.39868,0.161665 -0.82624,0.237471 -1.25612,0.222449 -0.38249,0.01271 -0.76383,-0.06344 -1.11166,-0.222449 -0.34205,-0.143754 -0.64713,-0.364469 -0.8898,-0.645159 -0.26578,-0.305882 -0.47032,-0.660991 -0.59974,-1.045452 -0.15254,-0.45888 -0.22765,-0.940063 -0.22303,-1.423672 -0.009,-0.490312 0.0624,-0.97889 0.21147,-1.445975 0.12018,-0.384114 0.31663,-0.739801 0.57779,-1.045452 0.24036,-0.279534 0.54081,-0.500249 0.87824,-0.645159 0.35361,-0.14514 0.73032,-0.220715 1.11166,-0.222449 0.41255,-0.01051 0.82162,0.08124 1.19025,0.266939 0.33165,0.159932 0.62055,0.396248 0.84473,0.689649 0.22765,0.311659 0.39636,0.662146 0.49921,1.034358 0.12827,0.399483 0.19991,0.815145 0.21147,1.23462 z m -1.38901,-1.112244 c -0.0508,-0.188128 -0.14098,-0.362852 -0.26693,-0.51169 -0.12481,-0.154154 -0.28543,-0.276184 -0.46686,-0.355918 -0.208,-0.08517 -0.43103,-0.126767 -0.65637,-0.122376 -0.18951,-0.01144 -0.37903,0.02069 -0.55467,0.09395 -0.1745,0.07326 -0.33166,0.185702 -0.45646,0.328762 -0.27503,0.338931 -0.43796,0.754708 -0.46685,1.19013 h 2.99063 c -0.0196,-0.204075 -0.0601,-0.405492 -0.12249,-0.600669 z"
     id="path1122"
     inkscape:connector-curvature="0"
     style="fill:#1b1c20;stroke-width:1.15557814" />
  <path
     d="m 239.97314,62.608647 -2.45676,-4.393393 -1.58892,1.924153 v 2.46924 h -1.24572 V 54.04431 h 1.24572 v 3.714953 c 0,0.155656 0,0.300219 0,0.433688 0,0.13347 0,0.244752 0,0.311429 0.0497,-0.08875 0.10516,-0.174262 0.1664,-0.25573 l 0.2785,-0.344824 0.28889,-0.367012 0.25538,-0.322637 2.53419,-3.169867 h 1.45602 l -2.51222,3.10319 3.05766,5.461147 z"
     id="path1124"
     inkscape:connector-curvature="0"
     style="fill:#1b1c20;stroke-width:1.15557814" />
  <path
     d="m 247.54333,59.271915 c 0.006,0.107468 0.006,0.215053 0,0.322522 0,0.100073 0,0.189052 0,0.244751 h -4.24559 c 0.0243,0.275721 0.0913,0.546011 0.19991,0.800816 0.0878,0.202572 0.21147,0.387349 0.36632,0.54497 0.14098,0.137514 0.30738,0.246947 0.48881,0.322522 0.17796,0.06633 0.36632,0.100189 0.55583,0.100073 0.25538,0.0039 0.50846,-0.04137 0.74535,-0.133469 0.23343,-0.09799 0.45414,-0.225107 0.65521,-0.378105 l 0.74535,0.800815 c -0.27849,0.264166 -0.60206,0.47529 -0.95566,0.622857 -0.39868,0.161665 -0.82624,0.237471 -1.25612,0.222449 -0.38365,0.01271 -0.76383,-0.06344 -1.11166,-0.222449 -0.34436,-0.140865 -0.64944,-0.362043 -0.8898,-0.645159 -0.26578,-0.305882 -0.47032,-0.660991 -0.59974,-1.045452 -0.15254,-0.45888 -0.22765,-0.940063 -0.22303,-1.423672 -0.009,-0.490312 0.0624,-0.97889 0.21147,-1.445975 0.11556,-0.383421 0.30854,-0.739108 0.56739,-1.045452 0.24383,-0.279765 0.54774,-0.500365 0.88864,-0.645159 0.35245,-0.14514 0.73033,-0.220715 1.11167,-0.222449 0.41254,-0.01051 0.82161,0.08124 1.18909,0.266939 0.3328,0.159932 0.6217,0.396248 0.84588,0.689649 0.22765,0.311659 0.39636,0.662146 0.49921,1.034358 0.12827,0.399483 0.19991,0.815145 0.21147,1.23462 z m -1.38901,-1.112244 c -0.0508,-0.188128 -0.14213,-0.362852 -0.26693,-0.51169 -0.12481,-0.154154 -0.28543,-0.276184 -0.46686,-0.355918 -0.21147,-0.08609 -0.43912,-0.127692 -0.66677,-0.122376 -0.18836,-0.01052 -0.37556,0.02207 -0.55005,0.09533 -0.17334,0.07326 -0.32703,0.185239 -0.45068,0.327375 -0.27849,0.33662 -0.44258,0.753668 -0.46685,1.19013 h 2.99064 c -0.0196,-0.204075 -0.0601,-0.405492 -0.1225,-0.600669 z"
     id="path1126"
     inkscape:connector-curvature="0"
     style="fill:#1b1c20;stroke-width:1.15557814" />
  <path
     d="m 253.44602,60.851359 c 0.0104,0.312353 -0.0589,0.622163 -0.19991,0.900889 -0.12943,0.232617 -0.31201,0.430915 -0.53388,0.578366 -0.22765,0.154501 -0.48534,0.260468 -0.75575,0.311429 -0.29929,0.06749 -0.60436,0.100997 -0.91175,0.100073 -0.45067,-0.0018 -0.89788,-0.08089 -1.32198,-0.233542 -0.39636,-0.140288 -0.76961,-0.334887 -1.11167,-0.578367 l 0.56624,-0.956588 c 0.28774,0.20292 0.60205,0.363892 0.9337,0.478294 0.30161,0.09857 0.61708,0.151034 0.93371,0.155772 0.78926,0 1.17869,-0.233658 1.17869,-0.711836 -0.005,-0.126074 -0.0439,-0.248334 -0.1144,-0.352683 -0.0716,-0.104349 -0.16987,-0.18651 -0.28543,-0.236893 -0.36054,-0.185124 -0.73264,-0.348523 -1.11166,-0.489388 -0.30277,-0.106197 -0.59628,-0.236431 -0.87824,-0.389198 -0.21148,-0.119025 -0.40561,-0.264743 -0.57779,-0.433804 -0.14907,-0.14699 -0.26348,-0.325642 -0.33397,-0.522784 -0.0705,-0.215169 -0.10515,-0.440853 -0.10053,-0.667346 -0.006,-0.26197 0.0508,-0.521513 0.16756,-0.756326 0.0994,-0.222449 0.25654,-0.414391 0.4553,-0.55618 0.20684,-0.152652 0.44143,-0.265783 0.68988,-0.333615 0.28658,-0.07269 0.58125,-0.110012 0.87708,-0.111283 0.40445,0.0051 0.80659,0.07257 1.19025,0.200262 0.3536,0.118331 0.68756,0.290975 0.98917,0.511574 l -0.54543,0.967682 c -0.24383,-0.175995 -0.51423,-0.31478 -0.79966,-0.411502 -0.27965,-0.09106 -0.57317,-0.136127 -0.86669,-0.133469 -0.23573,-0.02126 -0.47032,0.03756 -0.66792,0.166865 -0.067,0.0468 -0.12249,0.110243 -0.15947,0.184084 -0.037,0.07396 -0.0543,0.156003 -0.0508,0.238511 -0.0173,0.07326 -0.0173,0.149301 0,0.222449 0.0462,0.08366 0.11094,0.155772 0.18836,0.211355 0.11325,0.08667 0.23112,0.164786 0.35592,0.233543 0.156,0.07789 0.35592,0.155772 0.59975,0.255845 l 0.9337,0.400408 c 0.2473,0.105388 0.47495,0.247987 0.67833,0.42271 0.17796,0.151034 0.31894,0.341358 0.41138,0.556064 0.10978,0.245561 0.16987,0.509957 0.17796,0.778629 z"
     id="path1128"
     inkscape:connector-curvature="0"
     style="fill:#1b1c20;stroke-width:1.15557814" />
  <path
     d="m 258.68195,62.608647 -1.41212,-3.19217 -0.97762,1.301297 v 1.890873 h -1.27807 v -8.252908 l 1.27807,-0.667347 v 4.393393 c 0,0.122375 0,0.244751 0,0.37822 v 0.645044 l 0.33281,-0.500481 0.36747,-0.54497 1.33354,-1.868686 h 1.43407 l -1.62243,2.146718 1.92288,4.271017 z"
     id="path1130"
     inkscape:connector-curvature="0"
     style="fill:#1b1c20;stroke-width:1.15557814" />
  <path
     d="M 264.99603,62.608647 V 61.98579 c -0.16641,0.247871 -0.40214,0.441315 -0.67833,0.55618 -0.29236,0.133585 -0.6113,0.201879 -0.9337,0.200146 -0.32241,0.02334 -0.64482,-0.03005 -0.94296,-0.155772 -0.29698,-0.125611 -0.56045,-0.31998 -0.76846,-0.567158 -0.43218,-0.628403 -0.63672,-1.386 -0.57779,-2.146602 v -3.681556 h 1.24456 v 3.625857 c -0.0451,0.48361 0.0809,0.967566 0.35592,1.368089 0.12018,0.131274 0.26925,0.234352 0.4345,0.301606 0.16525,0.06725 0.3432,0.09718 0.52116,0.08771 0.1849,0.01398 0.36979,-0.01837 0.5385,-0.09418 0.16872,-0.07569 0.31663,-0.192519 0.42872,-0.339624 0.25192,-0.347714 0.37325,-0.772851 0.34436,-1.201224 v -3.748233 h 1.26767 v 6.417619 z"
     id="path1132"
     inkscape:connector-curvature="0"
     style="fill:#1b1c20;stroke-width:1.15557814" />
  <path
     d="m 272.57662,60.851359 c 0.0104,0.312353 -0.0578,0.622163 -0.19992,0.900889 -0.12942,0.232617 -0.312,0.430915 -0.53387,0.578366 -0.23227,0.152652 -0.49343,0.258388 -0.76615,0.311429 -0.2993,0.06806 -0.60552,0.101575 -0.91175,0.100073 -0.44721,-0.0017 -0.89095,-0.08078 -1.31158,-0.233542 -0.39521,-0.141212 -0.76962,-0.335812 -1.11167,-0.578367 l 0.57779,-0.956588 c 0.28658,0.20292 0.60206,0.363892 0.93371,0.478294 0.3016,0.09857 0.61708,0.151034 0.9337,0.155772 0.77771,0 1.17869,-0.233658 1.17869,-0.711836 -0.005,-0.126074 -0.0439,-0.248334 -0.11555,-0.352683 -0.0705,-0.104349 -0.16987,-0.18651 -0.28543,-0.236893 -0.3617,-0.182235 -0.73264,-0.345518 -1.11051,-0.489388 -0.2993,-0.106082 -0.58935,-0.2362 -0.86784,-0.389198 -0.21378,-0.119141 -0.41139,-0.264859 -0.58935,-0.433804 -0.1456,-0.147568 -0.25538,-0.326336 -0.3224,-0.522784 -0.0705,-0.215169 -0.10401,-0.440853 -0.0994,-0.667346 -0.005,-0.260468 0.0485,-0.518739 0.156,-0.756326 0.10285,-0.220022 0.26001,-0.411155 0.4553,-0.55618 0.21147,-0.151381 0.44952,-0.264281 0.70028,-0.333615 0.28658,-0.07326 0.58241,-0.110705 0.87824,-0.111283 0.40098,0.0042 0.7985,0.07176 1.17869,0.200262 0.35592,0.120642 0.69334,0.292939 0.99957,0.511574 l -0.55583,0.967682 c -0.23921,-0.178075 -0.50614,-0.316975 -0.78926,-0.411502 -0.27965,-0.09106 -0.57201,-0.136127 -0.86668,-0.133469 -0.23805,-0.01872 -0.4761,0.03975 -0.67833,0.166865 -0.0659,0.04819 -0.12018,0.11186 -0.15716,0.185471 -0.037,0.0735 -0.0555,0.154847 -0.0543,0.237124 0.002,0.07742 0.0208,0.153461 0.0566,0.222449 0.0416,0.08332 0.10285,0.155657 0.17681,0.211355 0.11556,0.08898 0.23805,0.167213 0.36747,0.233543 0.14445,0.07789 0.34436,0.155772 0.58935,0.255845 l 0.9441,0.400408 c 0.24383,0.110704 0.47148,0.25284 0.67833,0.42271 0.17565,0.154039 0.31547,0.343669 0.41138,0.556064 0.0867,0.250067 0.12481,0.514348 0.11094,0.778629 z"
     id="path1134"
     inkscape:connector-curvature="0"
     style="fill:#1b1c20;stroke-width:1.15557814" />
</svg>
